<?xml version="1.0" encoding="UTF-8" standalone="no"?>
<!DOCTYPE svg PUBLIC "-//W3C//DTD SVG 20010904//EN"
              "http://www.w3.org/TR/2001/REC-SVG-20010904/DTD/svg10.dtd">

<svg xmlns="http://www.w3.org/2000/svg"
     width="42.0746mm" height="50.8071mm"
     viewBox="0 0 159 192">
  <path id="Fear"
        fill="#808080" stroke="black" stroke-width="1"
        d="M 107.14,62.84
           C 107.14,62.84 52.70,137.55 52.70,137.55
             52.70,137.55 110.33,137.55 110.33,137.55
             110.33,137.55 127.99,79.63 127.99,79.63
             127.99,79.63 107.14,62.84 107.14,62.84 Z
           M 48.07,144.21
           C 48.07,144.21 13.61,192.28 13.61,192.28
             14.01,191.90 30.68,177.55 47.81,176.06
             47.81,176.06 64.48,176.30 64.48,176.30
             64.69,176.22 79.31,180.77 79.31,180.77
             79.31,180.77 126.04,165.15 126.04,165.15
             126.04,165.15 110.91,143.92 110.91,143.92
             110.91,143.92 48.07,144.21 48.07,144.21 Z
           M 134.24,81.37
           C 134.24,81.37 115.74,140.33 115.74,140.33
             115.74,140.33 131.41,161.00 131.41,161.00
             131.41,161.00 158.98,122.82 158.98,122.82
             158.98,122.82 158.91,72.83 158.91,72.83
             158.91,72.83 134.24,81.37 134.24,81.37 Z
           M 130.43,30.45
           C 130.43,30.45 110.41,59.27 110.41,59.27
             110.41,59.27 131.77,75.21 131.77,75.21
             131.77,75.21 157.51,67.23 157.51,67.23
             157.25,67.32 130.42,30.45 130.43,30.45 Z" />
  <path id="Hope"
        fill="white" stroke="black" stroke-width="1"
        d="M 143.84,1.80
           C 143.84,1.80 105.59,54.92 105.59,54.92
             105.59,54.92 83.04,39.72 83.04,39.72
             83.04,39.72 82.87,13.08 82.87,13.08
             82.23,14.32 111.40,18.59 112.13,17.16
             113.68,18.32 145.11,2.74 143.84,1.80 Z
           M 76.01,13.40
           C 76.01,13.40 76.01,40.05 76.01,40.05
             76.01,40.05 25.99,75.35 25.99,75.35
             25.99,75.35 1.96,68.16 1.96,68.16
             1.96,68.16 30.08,27.62 30.08,27.62
             30.08,27.62 76.01,13.40 76.01,13.40 Z
           M 79.11,44.62
           C 79.11,44.62 101.34,60.81 101.34,60.81
             101.34,60.81 48.38,133.54 48.38,133.54
             48.38,133.54 30.57,80.09 30.57,80.09
             30.57,80.09 79.11,44.62 79.11,44.62 Z
           M 24.36,81.07
           C 24.36,81.07 43.64,139.59 43.64,139.59
             43.64,139.59 28.11,162.31 28.11,162.31
             28.11,162.31 0.33,123.90 0.33,123.90
             0.33,123.90 0.33,74.05 0.33,74.05
             0.33,74.05 24.36,81.07 24.36,81.07 Z" />
</svg>
